HIERARCHY
ROOT Hips
{
    OFFSET   0.000000   0.000000   0.000000
    CHANNELS 6 Xposition Yposition Zposition Zrotation Xrotation Yrotation
    JOINT Chest
    {
        OFFSET   0.000000   8.007230   0.000000
        CHANNELS 3 Zrotation Xrotation Yrotation
        JOINT Chest2
        {
            OFFSET   0.000000  22.077100   0.000000
            CHANNELS 3 Zrotation Xrotation Yrotation
            JOINT Neck
            {
                OFFSET   0.000000  23.254800   0.000000
                CHANNELS 3 Zrotation Xrotation Yrotation
                JOINT Head
                {
                    OFFSET   0.000010  14.370000   1.956600
                    CHANNELS 3 Zrotation Xrotation Yrotation
                    End Site
                    {
                        OFFSET   0.000000  19.566000   0.000000
                    }
                }
            }
            JOINT LeftCollar
            {
                OFFSET   3.911900  19.017000  -0.467062
                CHANNELS 3 Zrotation Xrotation Yrotation
                JOINT LeftShoulder
                {
                    OFFSET  10.383700   0.000000   0.000000
                    CHANNELS 3 Zrotation Xrotation Yrotation
                    JOINT LeftElbow
                    {
                        OFFSET  26.662100   0.001193   0.000835
                        CHANNELS 3 Zrotation Xrotation Yrotation
                        JOINT LeftWrist
                        {
                            OFFSET  28.869000  -0.000058  -0.000075
                            CHANNELS 3 Zrotation Xrotation Yrotation
                            JOINT LeftFinger0
                            {
                                OFFSET   2.044660  -2.323460   3.252850
                                CHANNELS 3 Zrotation Xrotation Yrotation
                                JOINT LeftFinger01
                                {
                                    OFFSET   3.088130   0.000000   0.000000
                                    CHANNELS 3 Zrotation Xrotation Yrotation
                                    JOINT LeftFinger02
                                    {
                                        OFFSET   2.639450   0.000000   0.000000
                                        CHANNELS 3 Zrotation Xrotation Yrotation
                                        End Site
                                        {
                                            OFFSET   2.582190   0.000000   0.000000
                                        }
                                    }
                                }
                            }
                            JOINT LeftFinger1
                            {
                                OFFSET   8.364480   0.000000   3.252850
                                CHANNELS 3 Zrotation Xrotation Yrotation
                                JOINT LeftFinger11
                                {
                                    OFFSET   4.646920   0.000000   0.000000
                                    CHANNELS 3 Zrotation Xrotation Yrotation
                                    JOINT LeftFinger12
                                    {
                                        OFFSET   2.323460   0.000000   0.000000
                                        CHANNELS 3 Zrotation Xrotation Yrotation
                                        End Site
                                        {
                                            OFFSET   2.273050   0.000000   0.000000
                                        }
                                    }
                                }
                            }
                            JOINT LeftFinger2
                            {
                                OFFSET   8.364490   0.000016   1.078090
                                CHANNELS 3 Zrotation Xrotation Yrotation
                                JOINT LeftFinger21
                                {
                                    OFFSET   5.111620   0.000000   0.000000
                                    CHANNELS 3 Zrotation Xrotation Yrotation
                                    JOINT LeftFinger22
                                    {
                                        OFFSET   2.788150   0.000012   0.000000
                                        CHANNELS 3 Zrotation Xrotation Yrotation
                                        End Site
                                        {
                                            OFFSET   2.727660   0.000000   0.000000
                                        }
                                    }
                                }
                            }
                            JOINT LeftFinger3
                            {
                                OFFSET   7.899780   0.000014  -1.078090
                                CHANNELS 3 Zrotation Xrotation Yrotation
                                JOINT LeftFinger31
                                {
                                    OFFSET   4.646930   0.000000   0.000000
                                    CHANNELS 3 Zrotation Xrotation Yrotation
                                    JOINT LeftFinger32
                                    {
                                        OFFSET   2.323470   0.000000   0.000000
                                        CHANNELS 3 Zrotation Xrotation Yrotation
                                        End Site
                                        {
                                            OFFSET   2.273050   0.000000   0.000000
                                        }
                                    }
                                }
                            }
                            JOINT LeftFinger4
                            {
                                OFFSET   7.435090   0.000000  -3.252850
                                CHANNELS 3 Zrotation Xrotation Yrotation
                                JOINT LeftFinger41
                                {
                                    OFFSET   3.717550   0.000000   0.000000
                                    CHANNELS 3 Zrotation Xrotation Yrotation
                                    JOINT LeftFinger42
                                    {
                                        OFFSET   1.858770   0.000000   0.000000
                                        CHANNELS 3 Zrotation Xrotation Yrotation
                                        End Site
                                        {
                                            OFFSET   1.818440   0.000000   0.000000
                                        }
                                    }
                                }
                            }
                        }
                    }
                }
            }
            JOINT RightCollar
            {
                OFFSET  -3.911900  19.017000  -0.467063
                CHANNELS 3 Zrotation Xrotation Yrotation
                JOINT RightShoulder
                {
                    OFFSET -10.383700   0.000023   0.000000
                    CHANNELS 3 Zrotation Xrotation Yrotation
                    JOINT RightElbow
                    {
                        OFFSET -26.662100   0.001246   0.001011
                        CHANNELS 3 Zrotation Xrotation Yrotation
                        JOINT RightWrist
                        {
                            OFFSET -28.869000  -0.000026  -0.000078
                            CHANNELS 3 Zrotation Xrotation Yrotation
                            JOINT RightFinger0
                            {
                                OFFSET  -2.044660  -2.323490   3.252850
                                CHANNELS 3 Zrotation Xrotation Yrotation
                                JOINT RightFinger01
                                {
                                    OFFSET  -3.088130   0.000000   0.000000
                                    CHANNELS 3 Zrotation Xrotation Yrotation
                                    JOINT RightFinger02
                                    {
                                        OFFSET  -2.639460   0.000000   0.000000
                                        CHANNELS 3 Zrotation Xrotation Yrotation
                                        End Site
                                        {
                                            OFFSET  -2.582190   0.000000   0.000000
                                        }
                                    }
                                }
                            }
                            JOINT RightFinger1
                            {
                                OFFSET  -8.364480   0.000000   3.252850
                                CHANNELS 3 Zrotation Xrotation Yrotation
                                JOINT RightFinger11
                                {
                                    OFFSET  -4.646920   0.000000   0.000000
                                    CHANNELS 3 Zrotation Xrotation Yrotation
                                    JOINT RightFinger12
                                    {
                                        OFFSET  -2.323470   0.000000   0.000000
                                        CHANNELS 3 Zrotation Xrotation Yrotation
                                        End Site
                                        {
                                            OFFSET  -2.273050   0.000000   0.000000
                                        }
                                    }
                                }
                            }
                            JOINT RightFinger2
                            {
                                OFFSET  -8.364480   0.000000   1.078090
                                CHANNELS 3 Zrotation Xrotation Yrotation
                                JOINT RightFinger21
                                {
                                    OFFSET  -5.111620   0.000000   0.000000
                                    CHANNELS 3 Zrotation Xrotation Yrotation
                                    JOINT RightFinger22
                                    {
                                        OFFSET  -2.788160   0.000000   0.000000
                                        CHANNELS 3 Zrotation Xrotation Yrotation
                                        End Site
                                        {
                                            OFFSET  -2.727660   0.000000   0.000000
                                        }
                                    }
                                }
                            }
                            JOINT RightFinger3
                            {
                                OFFSET  -7.899780   0.000000  -1.078090
                                CHANNELS 3 Zrotation Xrotation Yrotation
                                JOINT RightFinger31
                                {
                                    OFFSET  -4.646930   0.000000   0.000000
                                    CHANNELS 3 Zrotation Xrotation Yrotation
                                    JOINT RightFinger32
                                    {
                                        OFFSET  -2.323470   0.000000   0.000000
                                        CHANNELS 3 Zrotation Xrotation Yrotation
                                        End Site
                                        {
                                            OFFSET  -2.273050   0.000000   0.000000
                                        }
                                    }
                                }
                            }
                            JOINT RightFinger4
                            {
                                OFFSET  -7.435090   0.000000  -3.252850
                                CHANNELS 3 Zrotation Xrotation Yrotation
                                JOINT RightFinger41
                                {
                                    OFFSET  -3.717550   0.000000   0.000000
                                    CHANNELS 3 Zrotation Xrotation Yrotation
                                    JOINT RightFinger42
                                    {
                                        OFFSET  -1.858760   0.000000   0.000000
                                        CHANNELS 3 Zrotation Xrotation Yrotation
                                        End Site
                                        {
                                            OFFSET  -1.818440   0.000000   0.000000
                                        }
                                    }
                                }
                            }
                        }
                    }
                }
            }
        }
    }
    JOINT LeftHip
    {
        OFFSET   9.783010   0.000000   0.000000
        CHANNELS 3 Zrotation Xrotation Yrotation
        JOINT LeftKnee
        {
            OFFSET   0.000073 -41.789100   0.001749
            CHANNELS 3 Zrotation Xrotation Yrotation
            JOINT LeftAnkle
            {
                OFFSET   0.000111 -41.133200  -0.000179
                CHANNELS 3 Zrotation Xrotation Yrotation
                JOINT LeftToe
                {
                    OFFSET   0.000000  -6.358960  14.674500
                    CHANNELS 3 Zrotation Xrotation Yrotation
                    End Site
                    {
                        OFFSET   0.000000   0.000000   3.913200
                    }
                }
            }
        }
    }
    JOINT RightHip
    {
        OFFSET  -9.783010   0.000000   0.000000
        CHANNELS 3 Zrotation Xrotation Yrotation
        JOINT RightKnee
        {
            OFFSET   0.000424 -41.789200   0.005205
            CHANNELS 3 Zrotation Xrotation Yrotation
            JOINT RightAnkle
            {
                OFFSET   0.000000 -41.133200  -0.000155
                CHANNELS 3 Zrotation Xrotation Yrotation
                JOINT RightToe
                {
                    OFFSET   0.000000  -6.358960  14.674500
                    CHANNELS 3 Zrotation Xrotation Yrotation
                    End Site
                    {
                        OFFSET   0.000000   0.000000   3.913200
                    }
                }
            }
        }
    }
}
MOTION
Frames: 6
Frame Time:   0.016667
  2.101010  89.456000   0.111182  -4.514820 -16.772400  -2.874400   0.251497   8.155030  -0.254018   0.548432  16.308800  -0.553181  -1.812240   2.253360   0.071155  -2.991050   4.555880  16.928700  -8.327340  -8.825260  -0.360691 -51.396100   8.284860 -65.876100  22.880100 -26.729600 -73.543600   0.197773 -12.152400 -10.341700  34.773400  55.636500 -71.876500 -64.727600  -0.054227   0.345110 -36.448600  -0.168346   0.160926  -3.410230  -0.335464   3.693990  -2.866590  -0.043841  -0.007812  -2.006600  -0.030574  -0.006137  -6.255110  -0.784945   5.214100  -6.376100  -0.283671  -0.088013  -4.246470  -0.184871  -0.070605 -63.326300  -2.963060   1.119470 -63.385300   0.295451  -0.325391 -47.538800   0.329699  -0.005279 -63.491100  -7.687820   3.627770 -95.651400   0.284800  -0.066075 -63.703400   0.127772   0.146592  12.789500  -3.065230  11.454500  69.215500  16.424700  -4.358690  -4.044070  -4.027670  16.577200 -12.682500  -6.141640   4.785240 -40.521500  28.845300  61.418600  25.299700  -0.000800  -0.002853   7.649850   0.000407  -0.003751  27.791100   8.299590  15.303700  23.652800  -0.002013   0.001086  16.556900   0.003195  -0.000694  28.234600   2.434280   4.522500  34.477700   0.000170   0.004950  22.962200   0.002109  -0.002015  28.672600   2.469200   4.503550  41.079200  -0.004454  -0.000341  27.358800  -0.000735   0.002241  30.752300   1.114600   1.872610  46.155500   0.000760  -0.000987  30.739600  -0.001420  -0.001710   1.932250  18.838600   5.994220   0.370780   0.041775   4.983780   0.437912  -3.081290   3.350350  -0.000000   0.000000  -0.000000   4.749340  13.481500   0.733331  -3.872600   9.812640  -9.202310   2.364960  -6.695150  -0.703801   0.000000   0.000000   0.000000
  2.118090  89.467800   0.090064  -4.551230 -16.906000  -3.027390   0.270329   8.151760  -0.304751   0.595013  16.301600  -0.658864  -1.820390   2.500050   0.078502  -3.045070   5.054640  16.571600  -8.080320  -9.030750  -0.753817 -52.154900   6.557960 -67.310100  21.595500 -23.435000 -66.539300   0.052728 -13.484100  -7.227480  37.367500  56.771800 -72.469400 -63.251100  -0.011034   0.132928 -35.465400  -0.049052   0.054995  -3.404290  -0.296590   3.701320  -2.786170  -0.005614  -0.001834  -1.950320  -0.004001  -0.001152  -5.156760  -0.643072   5.243280  -5.195930  -0.090913  -0.025995  -3.460500  -0.059711  -0.020436 -62.555900  -4.973980   2.498050 -62.615900   0.080966  -0.092319 -46.962000   0.092220  -0.003024 -63.820400  -8.416510   4.123530 -96.223300   0.041096  -0.004238 -64.084200   0.016761   0.021389  12.852700  -3.238840  11.347700  69.150800  16.832000  -4.309760  -3.935940  -4.126770  16.218600 -12.596700  -6.037710   4.745850 -40.529000  28.831600  61.469100  25.281100  -0.000958  -0.002910   7.640550   0.000367  -0.003785  27.784700   8.299900  15.307700  23.647900  -0.002033   0.001070  16.553500   0.003103  -0.000741  28.232100   2.445300   4.541460  34.466500   0.000166   0.004923  22.954700   0.002158  -0.002055  28.670600   2.479940   4.522670  41.004500  -0.004409  -0.000330  27.309000  -0.000744   0.002208  30.646700   1.133490   1.912540  45.998200   0.000754  -0.000987  30.634800  -0.001422  -0.001730   1.904360  18.944700   6.087100   0.374877   0.089876   4.933020   0.417304  -3.079670   3.453990  -0.000000   0.000000   0.000000   4.759100  13.597700   0.824401  -3.889970   9.853520  -9.191340   2.342370  -6.706510  -0.683538  -0.000000   0.000000   0.000000
  2.148220  89.476000   0.059389  -4.594540 -17.025500  -3.213240   0.314542   8.151200  -0.418779   0.700803  16.299700  -0.897165  -1.873610   2.624680   0.086134  -3.095720   5.305840  16.424800  -7.845320  -9.265270  -1.180390 -51.269300   4.849580 -68.639100  19.973100 -20.970300 -59.540300   0.185275 -14.775600  -5.738840  40.375700  57.566500 -74.477700 -60.562600   0.008100   0.014507 -33.674600   0.016229  -0.009997  -3.401440  -0.210554   3.702350  -2.759620   0.008278  -0.000381  -1.931740   0.005770  -0.000065  -4.849940  -0.411678   5.247270  -4.826890   0.030163   0.010869  -3.214710   0.019531   0.008649 -62.323000  -6.243400   3.327700 -62.505900  -0.050106   0.052985 -46.879600  -0.054648  -0.000769 -64.573800  -9.165110   4.407860 -97.381500  -0.100423   0.028312 -64.856200  -0.046622  -0.051429  12.917100  -3.431520  11.277800  68.933400  17.391700  -4.176650  -3.841330  -4.232030  15.884400 -12.461600  -5.909500   4.724290 -40.540900  28.826000  61.496200  25.219100  -0.001117  -0.002966   7.609570   0.000324  -0.003821  27.741200   8.299050  15.335700  23.613600  -0.002053   0.001052  16.529500   0.003012  -0.000788  28.222200   2.468170   4.587840  34.388100   0.000161   0.004896  22.902500   0.002207  -0.002095  28.666500   2.503900   4.568430  40.857200  -0.004365  -0.000316  27.210800  -0.000752   0.002175  30.590100   1.143560   1.934070  45.913800   0.000736  -0.000988  30.578500  -0.001423  -0.001750   1.876350  19.043400   6.192610   0.379062   0.137984   4.881150   0.398353  -3.077970   3.577220  -0.000000   0.000000  -0.000000   4.772240  13.658300   0.926340  -3.911830   9.922960  -9.160900   2.321450  -6.716400  -0.658448   0.000000   0.000000  -0.000000
  2.178390  89.475500   0.020732  -4.660100 -17.130200  -3.459570   0.389533   8.193640  -0.640569   0.886347  16.382300  -1.359320  -2.037190   2.622430   0.095550  -3.319320   5.294850  16.735100  -7.664100  -9.530590  -1.570260 -48.611900   3.516670 -69.645900  19.406800 -20.380100 -52.424700   0.579497 -15.573900  -6.404810  43.431900  57.697100 -77.431700 -57.192000   0.007205   0.014462 -31.429800   0.007908   0.000439  -3.323030  -0.071995   1.472550  -2.694460   0.008315  -0.000400  -1.886120   0.005812   0.000166  -4.869730  -0.195850   3.009240  -4.833180   0.013650   0.005342  -3.218900   0.008831   0.008600 -62.866300  -6.049630   3.118300 -63.031700  -0.023292   0.022025 -47.273900  -0.023967  -0.003884 -65.625800  -9.186950   4.202610 -98.929700  -0.047639   0.011655 -65.887400  -0.020934  -0.024958  12.992600  -3.646580  11.346000  68.537800  18.124900  -3.953650  -3.801450  -4.301540  15.578300 -12.280800  -5.684770   4.734580 -40.600800  28.788300  61.414000  25.086500  -0.001268  -0.003029   7.543270   0.000274  -0.003856  27.584500   8.293370  15.440800  23.491300  -0.002073   0.001034  16.443900   0.002918  -0.000833  28.190400   2.518690   4.688030  34.158100   0.000156   0.004870  22.749300   0.002256  -0.002139  28.657500   2.557460   4.666940  40.589800  -0.004322  -0.000305  27.032700  -0.000758   0.002140  30.600800   1.141770   1.928750  45.930300  -0.002875  -0.000991  30.589500  -0.001416  -0.001761   1.861130  19.195800   6.304570   0.372987   0.068790   4.855200   0.383680  -3.031200   3.732780  -0.000000   0.000000  -0.000000   4.796950  13.656700   1.021760  -3.945470  10.025100  -9.076810   2.309110  -6.719890  -0.614247   0.000000   0.000000   0.000000
  2.205370  89.472300  -0.018698  -4.746810 -17.180400  -3.780620   0.477879   8.259880  -0.893120   1.104920  16.510900  -1.886580  -2.236070   2.606670   0.101558  -3.694680   5.261730  17.295800  -7.531320  -9.687470  -1.882000 -45.293400   2.398570 -70.123300  18.614700 -21.395700 -46.087200   1.333150 -16.231900  -7.072250  45.362500  57.373600 -79.455500 -55.033200   0.005433   0.014417 -29.992100  -0.000413   0.010876  -3.246760   0.041940  -0.773752  -2.655660   0.008320  -0.000448  -1.858960   0.005818   0.000235  -4.878000  -0.068755   0.771312  -4.877280  -0.002863  -0.000534  -3.248250  -0.001868   0.008496 -63.408700  -5.846570   2.909040 -63.557500   0.003522  -0.008935 -47.668100   0.006714  -0.007220 -66.578300  -9.195370   3.955470 -100.345000   0.005144  -0.005002 -66.830000   0.004755   0.001513  13.078100  -3.846580  11.456000  68.074400  18.758800  -3.708170  -3.795110  -4.333490  15.387300 -12.164300  -5.535730   4.755930 -40.680700  28.699100  61.188500  24.952700  -0.001419  -0.003091   7.476360   0.000224  -0.003892  27.403100   8.279280  15.521400  23.346500  -0.002092   0.001016  16.342500   0.002823  -0.000877  28.152900   2.554210   4.758700  33.888100   0.000150   0.004844  22.569400   0.002305  -0.002182  28.651000   2.595240   4.736360  40.406500  -0.004279  -0.000293  26.910700  -0.000762   0.002104  30.675800   1.129210   1.891520  46.046100  -0.008829  -0.000993  30.666700  -0.001410  -0.001771   1.854760  19.305100   6.418920   0.358701  -0.000409   4.846430   0.372895  -2.986270   3.913140   0.000000   0.000000  -0.000000   4.824400  13.648100   1.102640  -3.992360  10.133800  -8.933200   2.306330  -6.720480  -0.533703  -0.000000   0.000000   0.000000
  2.221180  89.464100  -0.051477  -4.863500 -17.169100  -4.212070   0.569782   8.310270  -1.129740   1.329160  16.607100  -2.381790  -2.417930   2.495920   0.102005  -4.003520   5.037700  17.889200  -7.458890  -9.650300  -2.035370 -42.161800   1.353500 -70.108200  18.142600 -22.921400 -41.460600   2.149570 -17.102400  -6.647080  44.200600  56.682500 -78.386600 -55.138800   0.003185   0.008737 -30.062400   0.003678   0.006382  -3.551940   0.056772  -0.784771  -2.906800   0.008289  -0.000522  -2.034770   0.005811   0.000346  -5.045540  -0.073858   0.881013  -5.065010  -0.000551  -0.000887  -3.373290  -0.000116   0.008366 -63.395800  -5.840390   2.920100 -63.544700  -0.002947   0.000881 -47.658500  -0.001126  -0.007454 -66.841400  -9.200100   3.925130 -100.737000  -0.009530   0.001647 -67.090900  -0.003286  -0.005606  13.180200  -4.007520  11.560300  67.596700  18.985400  -3.479840  -3.888860  -4.206380  15.345300 -12.211000  -5.559480   4.785500 -40.711200  28.554900  60.784100  24.885200  -0.001572  -0.003142   7.442620   0.000190  -0.003925  27.281600   8.242590  15.512200  23.246400  -0.002106   0.000998  16.272500   0.002728  -0.000917  28.122800   2.541260   4.737730  33.655600   0.000145   0.004817  22.414700   0.002351  -0.002222  28.652600   2.583980   4.714580  40.428200  -0.004234  -0.000281  26.925100  -0.000768   0.002066  31.090200   1.053050   1.728810  46.667300  -0.014672  -0.000992  31.080500  -0.001414  -0.001785   1.860970  19.321000   6.536500   0.337920   0.045298   4.919290   0.366625  -3.018070   4.115100   0.000000   0.000000   0.000000   4.853830  13.567900   1.156290  -4.059180  10.236000  -8.704770   2.317770  -6.700410  -0.391582  -0.000000   0.000000  -0.000000
